<?xml version="1.0" encoding="UTF-8"?>
<svg width="100" height="100" viewBox="0 0 100 100" xmlns="http://www.w3.org/2000/svg">
  <style>
    .stroke { stroke: #1D3C34; stroke-width: 2; fill: none; }
    .fill { fill: #C9A980; }
    .fill-light { fill: #E5D7B5; }
    .fill-dark { fill: #8A7654; }
  </style>
  <g>
    <!-- Joaillier (stylisé) -->
    <circle class="fill-dark" cx="30" cy="30" r="8" />
    <path class="stroke" d="M30,38 L30,55" />
    <path class="stroke" d="M20,45 L40,45" />
    <path class="stroke" d="M30,55 L20,70" />
    <path class="stroke" d="M30,55 L40,70" />
    
    <!-- Établi du joaillier -->
    <rect class="fill-dark" x="15" y="70" width="70" height="10" rx="2" />
    <rect class="stroke" x="15" y="70" width="70" height="10" rx="2" />
    <rect class="fill-dark" x="20" y="80" width="5" height="15" />
    <rect class="fill-dark" x="75" y="80" width="5" height="15" />
    
    <!-- Diamants sur l'établi -->
    <polygon class="fill-light" points="50,50 45,60 55,60" />
    <polygon class="stroke" points="50,50 45,60 55,60" />
    
    <polygon class="fill-light" points="65,55 60,65 70,65" />
    <polygon class="stroke" points="65,55 60,65 70,65" />
    
    <!-- Loupe et outils -->
    <circle class="fill-light" cx="80" cy="40" r="8" opacity="0.5" />
    <circle class="stroke" cx="80" cy="40" r="8" />
    <line class="stroke" x1="75" y1="45" x2="70" y2="50" stroke-width="1.5" />
    
    <!-- Boîte à bijoux -->
    <rect class="fill" x="20" y="50" width="15" height="10" rx="2" />
    <rect class="stroke" x="20" y="50" width="15" height="10" rx="2" />
    <rect class="fill-dark" x="20" y="50" width="15" height="2" />
    
    <!-- Document de vente -->
    <rect class="fill-light" x="75" y="55" width="15" height="20" />
    <rect class="stroke" x="75" y="55" width="15" height="20" />
    <line class="stroke" x1="78" y1="60" x2="87" y2="60" stroke-width="0.5" />
    <line class="stroke" x1="78" y1="65" x2="87" y2="65" stroke-width="0.5" />
    <line class="stroke" x1="78" y1="70" x2="87" y2="70" stroke-width="0.5" />
  </g>
</svg>
