<?xml version="1.0" encoding="UTF-8"?>
<svg width="100" height="100" viewBox="0 0 100 100" xmlns="http://www.w3.org/2000/svg">
  <style>
    .stroke { stroke: #1D3C34; stroke-width: 2; fill: none; }
    .fill { fill: #C9A980; }
    .fill-light { fill: #E5D7B5; }
    .fill-dark { fill: #8A7654; }
  </style>
  <g>
    <!-- Mallette sécurisée -->
    <rect class="fill-dark" x="20" y="30" width="60" height="40" rx="5" />
    <rect class="fill" x="25" y="35" width="50" height="30" rx="3" />
    <rect class="stroke" x="20" y="30" width="60" height="40" rx="5" />
    
    <!-- Poignée de la mallette -->
    <path class="stroke" d="M40,30 L40,20 L60,20 L60,30" />
    
    <!-- Serrure -->
    <rect class="fill-light" x="48" y="45" width="4" height="10" rx="1" />
    <circle class="stroke" cx="50" cy="50" r="8" />
    
    <!-- Diamants dans la mallette -->
    <polygon class="fill-light" points="35,45 30,55 40,55" />
    <polygon class="fill-light" points="65,45 60,55 70,55" />
    
    <!-- Document de certification -->
    <rect class="fill-light" x="70" y="60" width="20" height="25" />
    <rect class="stroke" x="70" y="60" width="20" height="25" />
    <line class="stroke" x1="75" y1="65" x2="85" y2="65" />
    <line class="stroke" x1="75" y1="70" x2="85" y2="70" />
    <line class="stroke" x1="75" y1="75" x2="85" y2="75" />
    <line class="stroke" x1="75" y1="80" x2="80" y2="80" />
  </g>
</svg>
