<?xml version="1.0" encoding="UTF-8"?>
<svg width="100" height="100" viewBox="0 0 100 100" xmlns="http://www.w3.org/2000/svg">
  <style>
    .stroke { stroke: #1D3C34; stroke-width: 2; fill: none; }
    .fill { fill: #C9A980; }
    .fill-light { fill: #E5D7B5; }
    .fill-dark { fill: #8A7654; }
  </style>
  <g>
    <!-- Loupe -->
    <circle class="fill-light" cx="40" cy="40" r="20" opacity="0.5" />
    <circle class="stroke" cx="40" cy="40" r="20" />
    <line class="stroke" x1="55" y1="55" x2="70" y2="70" stroke-width="3" />
    <path class="stroke" d="M40,25 L40,55 M25,40 L55,40" stroke-width="1" />
    
    <!-- Diamants de différentes tailles -->
    <polygon class="fill-light" points="35,35 30,45 40,45" />
    <polygon class="fill" points="65,30 60,40 70,40" />
    <polygon class="fill-light" points="75,50 70,60 80,60" />
    <polygon class="fill" points="30,65 25,75 35,75" />
    <polygon class="fill-dark" points="55,70 50,80 60,80" />
    
    <!-- Règle de mesure -->
    <rect class="fill-light" x="20" y="85" width="60" height="5" />
    <rect class="stroke" x="20" y="85" width="60" height="5" />
    <line class="stroke" x1="25" y1="85" x2="25" y2="90" />
    <line class="stroke" x1="30" y1="85" x2="30" y2="90" />
    <line class="stroke" x1="35" y1="85" x2="35" y2="90" />
    <line class="stroke" x1="40" y1="85" x2="40" y2="90" />
    <line class="stroke" x1="45" y1="85" x2="45" y2="90" />
    <line class="stroke" x1="50" y1="85" x2="50" y2="90" />
    <line class="stroke" x1="55" y1="85" x2="55" y2="90" />
    <line class="stroke" x1="60" y1="85" x2="60" y2="90" />
    <line class="stroke" x1="65" y1="85" x2="65" y2="90" />
    <line class="stroke" x1="70" y1="85" x2="70" y2="90" />
    <line class="stroke" x1="75" y1="85" x2="75" y2="90" />
  </g>
</svg>
