<?xml version="1.0" encoding="UTF-8"?>
<svg width="100" height="100" viewBox="0 0 100 100" xmlns="http://www.w3.org/2000/svg">
  <style>
    .stroke { stroke: #1D3C34; stroke-width: 2; fill: none; }
    .fill { fill: #C9A980; }
    .fill-light { fill: #E5D7B5; }
    .fill-dark { fill: #8A7654; }
  </style>
  <g>
    <path class="fill-dark" d="M20,70 L80,70 L70,90 L30,90 Z" />
    <path class="fill" d="M25,50 L75,50 L80,70 L20,70 Z" />
    <path class="stroke" d="M20,70 L80,70 L70,90 L30,90 Z" />
    <path class="stroke" d="M25,50 L75,50 L80,70 L20,70 Z" />
    <circle class="fill-light" cx="40" cy="60" r="5" />
    <circle class="fill-light" cx="60" cy="60" r="3" />
    <circle class="fill-light" cx="50" cy="65" r="4" />
    <path class="stroke" d="M30,50 L35,30 L65,30 L70,50" />
    <path class="fill" d="M35,30 L45,15 L55,15 L65,30 Z" />
    <path class="stroke" d="M35,30 L45,15 L55,15 L65,30 Z" />
    <line class="stroke" x1="45" y1="15" x2="45" y2="10" />
    <line class="stroke" x1="55" y1="15" x2="55" y2="10" />
    <path class="stroke" d="M45,10 C45,5 55,5 55,10" />
  </g>
</svg>
