<?xml version="1.0" encoding="UTF-8"?>
<svg xmlns="http://www.w3.org/2000/svg" viewBox="0 0 250 250" width="250" height="250">
  <!-- QR code plus réaliste basé sur la référence -->
  <rect x="5" y="5" width="240" height="240" fill="white" stroke="#004D40" stroke-width="2"/>
  
  <!-- Modules QR code en vert foncé -->
  <!-- Coins -->
  <rect x="20" y="20" width="40" height="40" fill="#004D40"/>
  <rect x="190" y="20" width="40" height="40" fill="#004D40"/>
  <rect x="20" y="190" width="40" height="40" fill="#004D40"/>
  
  <!-- Motifs de positionnement -->
  <rect x="70" y="20" width="10" height="10" fill="#004D40"/>
  <rect x="90" y="20" width="10" height="10" fill="#004D40"/>
  <rect x="110" y="20" width="10" height="10" fill="#004D40"/>
  <rect x="130" y="20" width="10" height="10" fill="#004D40"/>
  
  <rect x="20" y="70" width="10" height="10" fill="#004D40"/>
  <rect x="40" y="70" width="10" height="10" fill="#004D40"/>
  <rect x="90" y="70" width="10" height="10" fill="#004D40"/>
  <rect x="170" y="70" width="10" height="10" fill="#004D40"/>
  
  <rect x="20" y="90" width="10" height="10" fill="#004D40"/>
  <rect x="60" y="90" width="10" height="10" fill="#004D40"/>
  <rect x="130" y="90" width="10" height="10" fill="#004D40"/>
  <rect x="190" y="90" width="10" height="10" fill="#004D40"/>
  
  <rect x="110" y="110" width="10" height="10" fill="#004D40"/>
  
  <rect x="20" y="130" width="10" height="10" fill="#004D40"/>
  <rect x="80" y="130" width="10" height="10" fill="#004D40"/>
  <rect x="150" y="130" width="10" height="10" fill="#004D40"/>
  <rect x="190" y="130" width="10" height="10" fill="#004D40"/>
  
  <rect x="40" y="150" width="10" height="10" fill="#004D40"/>
  <rect x="110" y="150" width="10" height="10" fill="#004D40"/>
  <rect x="170" y="150" width="10" height="10" fill="#004D40"/>
  
  <rect x="70" y="170" width="10" height="10" fill="#004D40"/>
  <rect x="90" y="170" width="10" height="10" fill="#004D40"/>
  <rect x="110" y="170" width="10" height="10" fill="#004D40"/>
  <rect x="130" y="170" width="10" height="10" fill="#004D40"/>
  <rect x="150" y="170" width="10" height="10" fill="#004D40"/>
  
  <rect x="70" y="190" width="10" height="10" fill="#004D40"/>
  <rect x="90" y="190" width="10" height="10" fill="#004D40"/>
  <rect x="110" y="190" width="10" height="10" fill="#004D40"/>
  <rect x="130" y="190" width="10" height="10" fill="#004D40"/>
  <rect x="150" y="190" width="10" height="10" fill="#004D40"/>
  <rect x="170" y="190" width="10" height="10" fill="#004D40"/>
  <rect x="190" y="190" width="10" height="10" fill="#004D40"/>
</svg>
